# xmcd CD database file
#
# Track frame offsets:
#	150
#	37129
#	105408
#	142726
#	184840
#	213628
#
# Disc length: 3326 seconds
#
# Revision: 0
# Processed by: cddbd v1.5.2PL0 Copyright (c) Steve Scherf et al.
# Submitted via: CDex 1.70beta2
#
DISCID=510cfc06
DTITLE=ERIC CLAPTON -Mark Knopfler - After Midnight(Live) cd2
DYEAR=1988
DGENRE=Blues
TTITLE0=Badge
TTITLE1=Same Old Blues
TTITLE2=Cocaine
TTITLE3=Layla
TTITLE4=Money For Nothing
TTITLE5=Sunshine Of Your Love
EXTD=YEAR: 1988
EXTT0=
EXTT1=
EXTT2=
EXTT3=
EXTT4=
EXTT5=
PLAYORDER=
